<svg width="102" height="25" viewBox="0 0 102 25" fill="none" xmlns="http://www.w3.org/2000/svg">
<path d="M1.38993 23.9304C1.16993 23.9304 0.982926 23.8534 0.828926 23.6994C0.674926 23.5454 0.597926 23.3584 0.597926 23.1384V1.65542C0.597926 1.41342 0.674926 1.21542 0.828926 1.06142C0.982926 0.907419 1.16993 0.830418 1.38993 0.830418H15.9099C16.1519 0.830418 16.3499 0.907419 16.5039 1.06142C16.6579 1.21542 16.7349 1.41342 16.7349 1.65542V3.83342C16.7349 4.05342 16.6579 4.24042 16.5039 4.39442C16.3499 4.54842 16.1519 4.62542 15.9099 4.62542H5.05293V10.4664H15.1839C15.4259 10.4664 15.6239 10.5434 15.7779 10.6974C15.9319 10.8294 16.0089 11.0164 16.0089 11.2584V13.3044C16.0089 13.5464 15.9319 13.7444 15.7779 13.8984C15.6239 14.0304 15.4259 14.0964 15.1839 14.0964H5.05293V20.1354H16.1739C16.4159 20.1354 16.6139 20.2124 16.7679 20.3664C16.9219 20.5204 16.9989 20.7184 16.9989 20.9604V23.1384C16.9989 23.3584 16.9219 23.5454 16.7679 23.6994C16.6139 23.8534 16.4159 23.9304 16.1739 23.9304H1.38993Z" fill="#FF6838"/>
<path d="M23.5682 23.9304C23.3482 23.9304 23.1612 23.8534 23.0072 23.6994C22.8532 23.5454 22.7762 23.3584 22.7762 23.1384V1.65542C22.7762 1.41342 22.8532 1.21542 23.0072 1.06142C23.1612 0.907419 23.3482 0.830418 23.5682 0.830418H37.8902C38.1322 0.830418 38.3302 0.907419 38.4842 1.06142C38.6382 1.21542 38.7152 1.41342 38.7152 1.65542V3.96542C38.7152 4.20742 38.6382 4.40542 38.4842 4.55942C38.3302 4.69142 38.1322 4.75742 37.8902 4.75742H27.2972V11.0274H37.2302C37.4722 11.0274 37.6702 11.1044 37.8242 11.2584C37.9782 11.4124 38.0552 11.6104 38.0552 11.8524V14.1624C38.0552 14.3824 37.9782 14.5694 37.8242 14.7234C37.6702 14.8774 37.4722 14.9544 37.2302 14.9544H27.2972V23.1384C27.2972 23.3584 27.2202 23.5454 27.0662 23.6994C26.9122 23.8534 26.7142 23.9304 26.4722 23.9304H23.5682ZM51.1173 24.2604C49.3573 24.2604 47.8723 23.9524 46.6623 23.3364C45.4743 22.7204 44.5613 21.8514 43.9233 20.7294C43.3073 19.6074 42.9553 18.2984 42.8673 16.8024C42.8453 16.4064 42.8343 15.9224 42.8343 15.3504C42.8343 14.7784 42.8453 14.2944 42.8673 13.8984C42.9553 12.3804 43.3183 11.0714 43.9563 9.97142C44.6163 8.84942 45.5403 7.98042 46.7283 7.36442C47.9383 6.74842 49.4013 6.44042 51.1173 6.44042C52.8333 6.44042 54.2853 6.74842 55.4733 7.36442C56.6833 7.98042 57.6073 8.84942 58.2453 9.97142C58.9053 11.0714 59.2793 12.3804 59.3673 13.8984C59.3893 14.2944 59.4003 14.7784 59.4003 15.3504C59.4003 15.9224 59.3893 16.4064 59.3673 16.8024C59.2793 18.2984 58.9163 19.6074 58.2783 20.7294C57.6623 21.8514 56.7493 22.7204 55.5393 23.3364C54.3513 23.9524 52.8773 24.2604 51.1173 24.2604ZM51.1173 20.9934C52.2833 20.9934 53.1853 20.6304 53.8233 19.9044C54.4613 19.1564 54.8133 18.0674 54.8793 16.6374C54.9013 16.3074 54.9123 15.8784 54.9123 15.3504C54.9123 14.8224 54.9013 14.3934 54.8793 14.0634C54.8133 12.6554 54.4613 11.5774 53.8233 10.8294C53.1853 10.0814 52.2833 9.70742 51.1173 9.70742C49.9513 9.70742 49.0493 10.0814 48.4113 10.8294C47.7733 11.5774 47.4213 12.6554 47.3553 14.0634C47.3333 14.3934 47.3223 14.8224 47.3223 15.3504C47.3223 15.8784 47.3333 16.3074 47.3553 16.6374C47.4213 18.0674 47.7733 19.1564 48.4113 19.9044C49.0493 20.6304 49.9513 20.9934 51.1173 20.9934ZM72.2966 24.2604C70.5366 24.2604 69.0516 23.9524 67.8416 23.3364C66.6536 22.7204 65.7406 21.8514 65.1026 20.7294C64.4866 19.6074 64.1346 18.2984 64.0466 16.8024C64.0246 16.4064 64.0136 15.9224 64.0136 15.3504C64.0136 14.7784 64.0246 14.2944 64.0466 13.8984C64.1346 12.3804 64.4976 11.0714 65.1356 9.97142C65.7956 8.84942 66.7196 7.98042 67.9076 7.36442C69.1176 6.74842 70.5806 6.44042 72.2966 6.44042C74.0126 6.44042 75.4646 6.74842 76.6526 7.36442C77.8626 7.98042 78.7866 8.84942 79.4246 9.97142C80.0846 11.0714 80.4586 12.3804 80.5466 13.8984C80.5686 14.2944 80.5796 14.7784 80.5796 15.3504C80.5796 15.9224 80.5686 16.4064 80.5466 16.8024C80.4586 18.2984 80.0956 19.6074 79.4576 20.7294C78.8416 21.8514 77.9286 22.7204 76.7186 23.3364C75.5306 23.9524 74.0566 24.2604 72.2966 24.2604ZM72.2966 20.9934C73.4626 20.9934 74.3646 20.6304 75.0026 19.9044C75.6406 19.1564 75.9926 18.0674 76.0586 16.6374C76.0806 16.3074 76.0916 15.8784 76.0916 15.3504C76.0916 14.8224 76.0806 14.3934 76.0586 14.0634C75.9926 12.6554 75.6406 11.5774 75.0026 10.8294C74.3646 10.0814 73.4626 9.70742 72.2966 9.70742C71.1306 9.70742 70.2286 10.0814 69.5906 10.8294C68.9526 11.5774 68.6006 12.6554 68.5346 14.0634C68.5126 14.3934 68.5016 14.8224 68.5016 15.3504C68.5016 15.8784 68.5126 16.3074 68.5346 16.6374C68.6006 18.0674 68.9526 19.1564 69.5906 19.9044C70.2286 20.6304 71.1306 20.9934 72.2966 20.9934ZM92.2549 24.2604C91.1109 24.2604 90.0989 24.0734 89.2189 23.6994C88.3609 23.3034 87.6459 22.7534 87.0739 22.0494C86.5019 21.3454 86.0619 20.5204 85.7539 19.5744C85.4459 18.6064 85.2699 17.5504 85.2259 16.4064C85.2039 16.0104 85.1929 15.6584 85.1929 15.3504C85.1929 15.0204 85.2039 14.6574 85.2259 14.2614C85.2699 13.1614 85.4349 12.1384 85.7209 11.1924C86.0289 10.2464 86.4689 9.42142 87.0409 8.71742C87.6349 7.99142 88.3609 7.43042 89.2189 7.03442C90.0989 6.63842 91.1109 6.44042 92.2549 6.44042C93.4429 6.44042 94.4439 6.64942 95.2579 7.06742C96.0939 7.46342 96.7869 7.98042 97.3369 8.61842V1.29242C97.3369 1.07242 97.4029 0.885419 97.5349 0.73142C97.6889 0.577419 97.8869 0.500419 98.1289 0.500419H100.934C101.154 0.500419 101.341 0.577419 101.495 0.73142C101.649 0.885419 101.726 1.07242 101.726 1.29242V23.1384C101.726 23.3584 101.649 23.5454 101.495 23.6994C101.341 23.8534 101.154 23.9304 100.934 23.9304H98.3269C98.0849 23.9304 97.8869 23.8534 97.7329 23.6994C97.6009 23.5454 97.5349 23.3584 97.5349 23.1384V21.9174C96.9849 22.5994 96.2809 23.1604 95.4229 23.6004C94.5869 24.0404 93.5309 24.2604 92.2549 24.2604ZM93.4759 20.7294C94.3999 20.7294 95.1369 20.5204 95.6869 20.1024C96.2369 19.6844 96.6439 19.1564 96.9079 18.5184C97.1719 17.8584 97.3149 17.1874 97.3369 16.5054C97.3589 16.1094 97.3699 15.6914 97.3699 15.2514C97.3699 14.7894 97.3589 14.3604 97.3369 13.9644C97.3149 13.3044 97.1609 12.6774 96.8749 12.0834C96.5889 11.4674 96.1709 10.9614 95.6209 10.5654C95.0709 10.1694 94.3559 9.97142 93.4759 9.97142C92.5519 9.97142 91.8149 10.1804 91.2649 10.5984C90.7369 10.9944 90.3519 11.5224 90.1099 12.1824C89.8679 12.8424 89.7249 13.5684 89.6809 14.3604C89.6589 15.0204 89.6589 15.6804 89.6809 16.3404C89.7249 17.1324 89.8679 17.8584 90.1099 18.5184C90.3519 19.1784 90.7369 19.7174 91.2649 20.1354C91.8149 20.5314 92.5519 20.7294 93.4759 20.7294Z" fill="#363853"/>
</svg>
